<svg width="40" height="40" viewBox="0 0 40 40" fill="none" xmlns="http://www.w3.org/2000/svg">
<path fill-rule="evenodd" clip-rule="evenodd" d="M12.4415 1.77675C14.3965 1.68675 15.0198 1.66675 19.9998 1.66675C24.9798 1.66675 25.6032 1.68841 27.5565 1.77675C29.5098 1.86508 30.8432 2.17675 32.0098 2.62841C33.2315 3.09008 34.3398 3.81175 35.2565 4.74508C36.1898 5.66008 36.9098 6.76675 37.3698 7.99008C37.8232 9.15675 38.1332 10.4901 38.2232 12.4401C38.3132 14.3984 38.3332 15.0217 38.3332 20.0001C38.3332 24.9801 38.3115 25.6034 38.2232 27.5584C38.1348 29.5084 37.8232 30.8417 37.3698 32.0084C36.9098 33.2319 36.1886 34.3404 35.2565 35.2567C34.3398 36.1901 33.2315 36.9101 32.0098 37.3701C30.8432 37.8234 29.5098 38.1334 27.5598 38.2234C25.6032 38.3134 24.9798 38.3334 19.9998 38.3334C15.0198 38.3334 14.3965 38.3117 12.4415 38.2234C10.4915 38.1351 9.15817 37.8234 7.9915 37.3701C6.76804 36.91 5.65954 36.1888 4.74317 35.2567C3.81047 34.3412 3.08869 33.2332 2.62817 32.0101C2.1765 30.8434 1.8665 29.5101 1.7765 27.5601C1.6865 25.6017 1.6665 24.9784 1.6665 20.0001C1.6665 15.0201 1.68817 14.3967 1.7765 12.4434C1.86484 10.4901 2.1765 9.15675 2.62817 7.99008C3.08938 6.76688 3.8117 5.65894 4.74484 4.74341C5.6599 3.81092 6.76729 3.08915 7.98984 2.62841C9.1565 2.17675 10.4898 1.86675 12.4398 1.77675H12.4415ZM27.4082 5.07675C25.4748 4.98841 24.8948 4.97008 19.9998 4.97008C15.1048 4.97008 14.5248 4.98841 12.5915 5.07675C10.8032 5.15841 9.83317 5.45675 9.1865 5.70841C8.3315 6.04175 7.71984 6.43675 7.07817 7.07841C6.46991 7.67017 6.0018 8.39055 5.70817 9.18675C5.4565 9.83341 5.15817 10.8034 5.0765 12.5917C4.98817 14.5251 4.96984 15.1051 4.96984 20.0001C4.96984 24.8951 4.98817 25.4751 5.0765 27.4084C5.15817 29.1967 5.4565 30.1667 5.70817 30.8134C6.0015 31.6084 6.46984 32.3301 7.07817 32.9217C7.66984 33.5301 8.3915 33.9984 9.1865 34.2917C9.83317 34.5434 10.8032 34.8417 12.5915 34.9234C14.5248 35.0117 15.1032 35.0301 19.9998 35.0301C24.8965 35.0301 25.4748 35.0117 27.4082 34.9234C29.1965 34.8417 30.1665 34.5434 30.8132 34.2917C31.6682 33.9584 32.2798 33.5634 32.9215 32.9217C33.5298 32.3301 33.9982 31.6084 34.2915 30.8134C34.5432 30.1667 34.8415 29.1967 34.9232 27.4084C35.0115 25.4751 35.0298 24.8951 35.0298 20.0001C35.0298 15.1051 35.0115 14.5251 34.9232 12.5917C34.8415 10.8034 34.5432 9.83341 34.2915 9.18675C33.9582 8.33175 33.5632 7.72008 32.9215 7.07841C32.3297 6.4702 31.6093 6.0021 30.8132 5.70841C30.1665 5.45675 29.1965 5.15841 27.4082 5.07675ZM17.6582 25.6517C18.9659 26.1961 20.4221 26.2696 21.778 25.8596C23.134 25.4496 24.3055 24.5816 25.0925 23.4038C25.8795 22.226 26.2333 20.8115 26.0932 19.4019C25.9532 17.9923 25.3282 16.675 24.3248 15.6751C23.6852 15.0359 22.9119 14.5464 22.0604 14.242C21.2089 13.9375 20.3006 13.8257 19.4007 13.9144C18.5008 14.0032 17.6318 14.2904 16.8562 14.7553C16.0806 15.2202 15.4177 15.8513 14.9153 16.6032C14.4129 17.355 14.0835 18.2089 13.9507 19.1033C13.8179 19.9978 13.8851 20.9106 14.1474 21.7759C14.4097 22.6413 14.8606 23.4378 15.4677 24.1079C16.0748 24.7781 16.8229 25.3054 17.6582 25.6517ZM13.3365 13.3367C14.2115 12.4617 15.2504 11.7676 16.3937 11.294C17.537 10.8204 18.7623 10.5767 19.9998 10.5767C21.2373 10.5767 22.4627 10.8204 23.606 11.294C24.7493 11.7676 25.7881 12.4617 26.6632 13.3367C27.5382 14.2118 28.2323 15.2506 28.7059 16.3939C29.1795 17.5372 29.4232 18.7626 29.4232 20.0001C29.4232 21.2376 29.1795 22.463 28.7059 23.6062C28.2323 24.7495 27.5382 25.7884 26.6632 26.6634C24.8959 28.4306 22.4991 29.4235 19.9998 29.4235C17.5006 29.4235 15.1037 28.4306 13.3365 26.6634C11.5693 24.8962 10.5765 22.4993 10.5765 20.0001C10.5765 17.5008 11.5693 15.104 13.3365 13.3367ZM31.5132 11.9801C31.73 11.7755 31.9036 11.5295 32.0237 11.2567C32.1437 10.9839 32.2079 10.6897 32.2122 10.3916C32.2165 10.0936 32.161 9.79766 32.049 9.52143C31.9369 9.2452 31.7706 8.99427 31.5598 8.78348C31.349 8.57269 31.098 8.40634 30.8218 8.29428C30.5456 8.18221 30.2497 8.12671 29.9516 8.13105C29.6536 8.1354 29.3594 8.1995 29.0865 8.31957C28.8137 8.43965 28.5677 8.61324 28.3632 8.83008C27.9654 9.2518 27.7476 9.81195 27.756 10.3916C27.7645 10.9713 27.9985 11.5249 28.4084 11.9348C28.8184 12.3448 29.3719 12.5788 29.9516 12.5872C30.5313 12.5957 31.0915 12.3779 31.5132 11.9801Z" fill="white"/>
</svg>
