<svg width="45" height="45" viewBox="0 0 45 45" fill="none" xmlns="http://www.w3.org/2000/svg">
<g clip-path="url(#clip0_8_98)">
<path d="M40.4123 7.49998C40.2419 7.48243 40.0702 7.48243 39.8998 7.49998H4.8998C4.67548 7.50344 4.45265 7.53708 4.2373 7.59998L22.2998 25.5875L40.4123 7.49998Z" fill="white"/>
<path d="M42.2626 9.23755L24.0626 27.3625C23.5942 27.8282 22.9606 28.0895 22.3001 28.0895C21.6396 28.0895 21.006 27.8282 20.5376 27.3625L2.5001 9.37505C2.44465 9.57885 2.41525 9.78886 2.4126 10V35C2.4126 35.6631 2.67599 36.299 3.14483 36.7678C3.61367 37.2367 4.24956 37.5 4.9126 37.5H39.9126C40.5756 37.5 41.2115 37.2367 41.6804 36.7678C42.1492 36.299 42.4126 35.6631 42.4126 35V10C42.4027 9.73962 42.352 9.48234 42.2626 9.23755ZM6.6251 35H4.8876V33.2125L13.9751 24.2001L15.7376 25.9626L6.6251 35ZM39.8876 35H38.1376L29.0251 25.9626L30.7876 24.2001L39.8751 33.2125L39.8876 35Z" fill="white"/>
</g>
<defs>
<clipPath id="clip0_8_98">
<rect width="45" height="45" fill="white"/>
</clipPath>
</defs>
</svg>
